<?xml version="1.0" encoding="UTF-8" standalone="no"?>
<svg width="124px" height="124px" viewBox="0 0 124 124" version="1.1" xmlns="http://www.w3.org/2000/svg" xmlns:xlink="http://www.w3.org/1999/xlink" xmlns:sketch="http://www.bohemiancoding.com/sketch/ns">
    <!-- Generator: Sketch 3.3.3 (12072) - http://www.bohemiancoding.com/sketch -->
    <title>Hyroscope</title>
    <desc>Created with Sketch.</desc>
    <defs>
        <linearGradient x1="50%" y1="0%" x2="50%" y2="100%" id="linearGradient-1">
            <stop stop-color="#3B454D" offset="0%"></stop>
            <stop stop-color="#5A6E7B" offset="100%"></stop>
        </linearGradient>
        <filter x="-50%" y="-50%" width="200%" height="200%" filterUnits="objectBoundingBox" id="filter-2">
            <feOffset dx="0" dy="1" in="SourceAlpha" result="shadowOffsetOuter1"></feOffset>
            <feGaussianBlur stdDeviation="1" in="shadowOffsetOuter1" result="shadowBlurOuter1"></feGaussianBlur>
            <feColorMatrix values="0 0 0 0 0.559296579   0 0 0 0 0.653861414   0 0 0 0 0.709024235  0 0 0 0.345284194 0" in="shadowBlurOuter1" type="matrix" result="shadowMatrixOuter1"></feColorMatrix>
            <feOffset dx="0" dy="1" in="SourceAlpha" result="shadowOffsetInner1"></feOffset>
            <feGaussianBlur stdDeviation="1" in="shadowOffsetInner1" result="shadowBlurInner1"></feGaussianBlur>
            <feComposite in="shadowBlurInner1" in2="SourceAlpha" operator="arithmetic" k2="-1" k3="1" result="shadowInnerInner1"></feComposite>
            <feColorMatrix values="0 0 0 0 0.189888125   0 0 0 0 0.222182073   0 0 0 0 0.24566858  0 0 0 0.248867754 0" in="shadowInnerInner1" type="matrix" result="shadowMatrixInner1"></feColorMatrix>
            <feMerge>
                <feMergeNode in="shadowMatrixOuter1"></feMergeNode>
                <feMergeNode in="SourceGraphic"></feMergeNode>
                <feMergeNode in="shadowMatrixInner1"></feMergeNode>
            </feMerge>
        </filter>
        <circle id="path-3" cx="60" cy="60" r="60"></circle>
        <radialGradient cx="50%" cy="50%" fx="50%" fy="50%" r="59.6524325%" id="radialGradient-4">
            <stop stop-color="#F7F7F7" offset="0%"></stop>
            <stop stop-color="#D7D7D7" offset="43.1704963%"></stop>
            <stop stop-color="#C1C1C1" offset="67.5744142%"></stop>
            <stop stop-color="#999999" offset="100%"></stop>
        </radialGradient>
        <filter x="-50%" y="-50%" width="200%" height="200%" filterUnits="objectBoundingBox" id="filter-5">
            <feOffset dx="0" dy="1" in="SourceAlpha" result="shadowOffsetOuter1"></feOffset>
            <feGaussianBlur stdDeviation="1" in="shadowOffsetOuter1" result="shadowBlurOuter1"></feGaussianBlur>
            <feColorMatrix values="0 0 0 0 0.60963412   0 0 0 0 0.658512605   0 0 0 0 0.693425808  0 0 0 0.653911911 0" in="shadowBlurOuter1" type="matrix" result="shadowMatrixOuter1"></feColorMatrix>
            <feOffset dx="0" dy="-1" in="SourceAlpha" result="shadowOffsetInner1"></feOffset>
            <feGaussianBlur stdDeviation="1" in="shadowOffsetInner1" result="shadowBlurInner1"></feGaussianBlur>
            <feComposite in="shadowBlurInner1" in2="SourceAlpha" operator="arithmetic" k2="-1" k3="1" result="shadowInnerInner1"></feComposite>
            <feColorMatrix values="0 0 0 0 0.247058824   0 0 0 0 0.247058824   0 0 0 0 0.247058824  0 0 0 0.501480412 0" in="shadowInnerInner1" type="matrix" result="shadowMatrixInner1"></feColorMatrix>
            <feOffset dx="0" dy="1" in="SourceAlpha" result="shadowOffsetInner2"></feOffset>
            <feGaussianBlur stdDeviation="1" in="shadowOffsetInner2" result="shadowBlurInner2"></feGaussianBlur>
            <feComposite in="shadowBlurInner2" in2="SourceAlpha" operator="arithmetic" k2="-1" k3="1" result="shadowInnerInner2"></feComposite>
            <feColorMatrix values="0 0 0 0 0.247058824   0 0 0 0 0.247058824   0 0 0 0 0.247058824  0 0 0 0.7 0" in="shadowInnerInner2" type="matrix" result="shadowMatrixInner2"></feColorMatrix>
            <feMerge>
                <feMergeNode in="shadowMatrixOuter1"></feMergeNode>
                <feMergeNode in="SourceGraphic"></feMergeNode>
                <feMergeNode in="shadowMatrixInner1"></feMergeNode>
                <feMergeNode in="shadowMatrixInner2"></feMergeNode>
            </feMerge>
        </filter>
        <circle id="path-6" cx="60" cy="60" r="44"></circle>
        <linearGradient x1="50%" y1="0%" x2="50%" y2="100%" id="linearGradient-7">
            <stop stop-color="#C9D3DA" offset="0%"></stop>
            <stop stop-color="#A0B2BA" offset="100%"></stop>
        </linearGradient>
    </defs>
    <g id="Page-1" stroke="none" stroke-width="1" fill="none" fill-rule="evenodd" sketch:type="MSPage">
        <g id="02_Start" sketch:type="MSArtboardGroup" transform="translate(-233.000000, -355.000000)">
            <g id="Y-Angel" sketch:type="MSLayerGroup" transform="translate(235.000000, 356.000000)">
                <g id="Hyroscope">
                    <g id="Oval-54" filter="url(#filter-2)">
                        <use fill="url(#linearGradient-1)" sketch:type="MSShapeGroup" xlink:href="#path-3"></use>
                        <use fill-opacity="0.02" fill="none" xlink:href="#path-3"></use>
                    </g>
                    <g id="Mask" filter="url(#filter-5)">
                        <use fill="url(#radialGradient-4)" sketch:type="MSShapeGroup" xlink:href="#path-6"></use>
                        <use fill-opacity="0.01" fill="none" xlink:href="#path-6"></use>
                    </g>
                    <path d="M58.4,4.80682416 C58.4,3.91939968 59.1101837,3.2 60,3.2 C60.8836556,3.2 61.6,3.92156029 61.6,4.80682416 L61.6,11.1931758 C61.6,12.0806003 60.8898163,12.8 60,12.8 C59.1163444,12.8 58.4,12.0784397 58.4,11.1931758 L58.4,4.80682416 Z M98.1789408,19.9583175 C98.8064446,19.3308137 99.8173128,19.324297 100.446508,19.9534921 C101.071347,20.578331 101.067659,21.5950831 100.441682,22.2210592 L95.9258499,26.7368918 C95.298346,27.3643957 94.2874779,27.3709123 93.6582828,26.7417172 C93.0334439,26.1168783 93.0371321,25.1001262 93.6631082,24.4741501 L98.1789408,19.9583175 Z M115.593176,58.8 C116.4806,58.8 117.2,59.5101837 117.2,60.4 C117.2,61.2836556 116.47844,62 115.593176,62 L109.206824,62 C108.3194,62 107.6,61.2898163 107.6,60.4 C107.6,59.5163444 108.32156,58.8 109.206824,58.8 L115.593176,58.8 Z M100.441682,98.5789408 C101.069186,99.2064446 101.075703,100.217313 100.446508,100.846508 C99.821669,101.471347 98.8049169,101.467659 98.1789408,100.841682 L93.6631082,96.3258499 C93.0356043,95.698346 93.0290877,94.6874779 93.6582828,94.0582828 C94.2831217,93.4334439 95.2998738,93.4371321 95.9258499,94.0631082 L100.441682,98.5789408 Z M61.6,115.993176 C61.6,116.8806 60.8898163,117.6 60,117.6 C59.1163444,117.6 58.4,116.87844 58.4,115.993176 L58.4,109.606824 C58.4,108.7194 59.1101837,108 60,108 C60.8836556,108 61.6,108.72156 61.6,109.606824 L61.6,115.993176 Z M21.8210592,100.841682 C21.1935554,101.469186 20.1826872,101.475703 19.5534921,100.846508 C18.9286532,100.221669 18.9323414,99.2049169 19.5583175,98.5789408 L24.0741501,94.0631082 C24.701654,93.4356043 25.7125221,93.4290877 26.3417172,94.0582828 C26.9665561,94.6831217 26.9628679,95.6998738 26.3368918,96.3258499 L21.8210592,100.841682 Z M4.40682416,62 C3.51939968,62 2.8,61.2898163 2.8,60.4 C2.8,59.5163444 3.52156029,58.8 4.40682416,58.8 L10.7931758,58.8 C11.6806003,58.8 12.4,59.5101837 12.4,60.4 C12.4,61.2836556 11.6784397,62 10.7931758,62 L4.40682416,62 Z M19.5583175,22.2210592 C18.9308137,21.5935554 18.924297,20.5826872 19.5534921,19.9534921 C20.178331,19.3286532 21.1950831,19.3323414 21.8210592,19.9583175 L26.3368918,24.4741501 C26.9643957,25.101654 26.9709123,26.1125221 26.3417172,26.7417172 C25.7168783,27.3665561 24.7001262,27.3628679 24.0741501,26.7368918 L19.5583175,22.2210592 Z" id="Rectangle-801" fill="url(#linearGradient-7)" sketch:type="MSShapeGroup"></path>
                </g>
            </g>
        </g>
    </g>
</svg>