<?xml version="1.0" encoding="UTF-8" standalone="no"?>
<svg width="104px" height="104px" viewBox="0 0 104 104" version="1.1" xmlns="http://www.w3.org/2000/svg" xmlns:xlink="http://www.w3.org/1999/xlink" xmlns:sketch="http://www.bohemiancoding.com/sketch/ns">
    <!-- Generator: Sketch 3.3.3 (12072) - http://www.bohemiancoding.com/sketch -->
    <title>Button start_norm</title>
    <desc>Created with Sketch.</desc>
    <defs>
        <linearGradient x1="50%" y1="0%" x2="50%" y2="100%" id="linearGradient-1">
            <stop stop-color="#3B454D" offset="0%"></stop>
            <stop stop-color="#5A6E7B" offset="100%"></stop>
        </linearGradient>
        <filter x="-50%" y="-50%" width="200%" height="200%" filterUnits="objectBoundingBox" id="filter-2">
            <feOffset dx="0" dy="0" in="SourceAlpha" result="shadowOffsetOuter1"></feOffset>
            <feGaussianBlur stdDeviation="1" in="shadowOffsetOuter1" result="shadowBlurOuter1"></feGaussianBlur>
            <feColorMatrix values="0 0 0 0 0.559296579   0 0 0 0 0.653861414   0 0 0 0 0.709024235  0 0 0 0.7 0" in="shadowBlurOuter1" type="matrix" result="shadowMatrixOuter1"></feColorMatrix>
            <feOffset dx="0" dy="2" in="SourceAlpha" result="shadowOffsetInner1"></feOffset>
            <feGaussianBlur stdDeviation="1" in="shadowOffsetInner1" result="shadowBlurInner1"></feGaussianBlur>
            <feComposite in="shadowBlurInner1" in2="SourceAlpha" operator="arithmetic" k2="-1" k3="1" result="shadowInnerInner1"></feComposite>
            <feColorMatrix values="0 0 0 0 0.189888125   0 0 0 0 0.222182073   0 0 0 0 0.24566858  0 0 0 0.248867754 0" in="shadowInnerInner1" type="matrix" result="shadowMatrixInner1"></feColorMatrix>
            <feMerge>
                <feMergeNode in="shadowMatrixOuter1"></feMergeNode>
                <feMergeNode in="SourceGraphic"></feMergeNode>
                <feMergeNode in="shadowMatrixInner1"></feMergeNode>
            </feMerge>
        </filter>
        <circle id="path-3" cx="50" cy="50" r="50"></circle>
        <linearGradient x1="49.9994755%" y1="0%" x2="49.9994755%" y2="100%" id="linearGradient-4">
            <stop stop-color="#F1E718" offset="0%"></stop>
            <stop stop-color="#C2B000" offset="100%"></stop>
        </linearGradient>
        <filter x="-50%" y="-50%" width="200%" height="200%" filterUnits="objectBoundingBox" id="filter-5">
            <feOffset dx="0" dy="1" in="SourceAlpha" result="shadowOffsetOuter1"></feOffset>
            <feGaussianBlur stdDeviation="1" in="shadowOffsetOuter1" result="shadowBlurOuter1"></feGaussianBlur>
            <feColorMatrix values="0 0 0 0 0.571207361   0 0 0 0 0.643852843   0 0 0 0 0.692283163  0 0 0 0.7 0" in="shadowBlurOuter1" type="matrix" result="shadowMatrixOuter1"></feColorMatrix>
            <feOffset dx="0" dy="-1" in="SourceAlpha" result="shadowOffsetInner1"></feOffset>
            <feGaussianBlur stdDeviation="1" in="shadowOffsetInner1" result="shadowBlurInner1"></feGaussianBlur>
            <feComposite in="shadowBlurInner1" in2="SourceAlpha" operator="arithmetic" k2="-1" k3="1" result="shadowInnerInner1"></feComposite>
            <feColorMatrix values="0 0 0 0 0.295691129   0 0 0 0 0.307876276   0 0 0 0 0.0265188569  0 0 0 0.7 0" in="shadowInnerInner1" type="matrix" result="shadowMatrixInner1"></feColorMatrix>
            <feMerge>
                <feMergeNode in="shadowMatrixOuter1"></feMergeNode>
                <feMergeNode in="SourceGraphic"></feMergeNode>
                <feMergeNode in="shadowMatrixInner1"></feMergeNode>
            </feMerge>
        </filter>
        <circle id="path-6" cx="50" cy="50" r="40"></circle>
        <filter x="-50%" y="-50%" width="200%" height="200%" filterUnits="objectBoundingBox" id="filter-7">
            <feOffset dx="0" dy="0" in="SourceAlpha" result="shadowOffsetOuter1"></feOffset>
            <feGaussianBlur stdDeviation="1" in="shadowOffsetOuter1" result="shadowBlurOuter1"></feGaussianBlur>
            <feColorMatrix values="0 0 0 0 1   0 0 0 0 0.976822673   0 0 0 0 0.485026042  0 0 0 0.35 0" in="shadowBlurOuter1" type="matrix" result="shadowMatrixOuter1"></feColorMatrix>
            <feOffset dx="0" dy="-1" in="SourceAlpha" result="shadowOffsetOuter2"></feOffset>
            <feGaussianBlur stdDeviation="1" in="shadowOffsetOuter2" result="shadowBlurOuter2"></feGaussianBlur>
            <feColorMatrix values="0 0 0 0 1   0 0 0 0 0.976822673   0 0 0 0 0.485026042  0 0 0 0.35 0" in="shadowBlurOuter2" type="matrix" result="shadowMatrixOuter2"></feColorMatrix>
            <feOffset dx="0" dy="0.5" in="SourceAlpha" result="shadowOffsetInner1"></feOffset>
            <feGaussianBlur stdDeviation="0.5" in="shadowOffsetInner1" result="shadowBlurInner1"></feGaussianBlur>
            <feComposite in="shadowBlurInner1" in2="SourceAlpha" operator="arithmetic" k2="-1" k3="1" result="shadowInnerInner1"></feComposite>
            <feColorMatrix values="0 0 0 0 0.414168793   0 0 0 0 0.382627875   0 0 0 0 0.014650502  0 0 0 0.466290195 0" in="shadowInnerInner1" type="matrix" result="shadowMatrixInner1"></feColorMatrix>
            <feMerge>
                <feMergeNode in="shadowMatrixOuter1"></feMergeNode>
                <feMergeNode in="shadowMatrixOuter2"></feMergeNode>
                <feMergeNode in="SourceGraphic"></feMergeNode>
                <feMergeNode in="shadowMatrixInner1"></feMergeNode>
            </feMerge>
        </filter>
    </defs>
    <g id="Page-1" stroke="none" stroke-width="1" fill="none" fill-rule="evenodd" sketch:type="MSPage">
        <g id="01_Chief" sketch:type="MSArtboardGroup" transform="translate(-136.000000, -462.000000)">
            <g id="Button-start" sketch:type="MSLayerGroup" transform="translate(138.000000, 464.000000)">
                <g id="Button-start_norm">
                    <g id="Oval-18" filter="url(#filter-2)">
                        <use fill="url(#linearGradient-1)" sketch:type="MSShapeGroup" xlink:href="#path-3"></use>
                        <use fill-opacity="0.02" fill="none" xlink:href="#path-3"></use>
                    </g>
                    <g id="Oval-19" filter="url(#filter-5)">
                        <use fill="url(#linearGradient-4)" sketch:type="MSShapeGroup" xlink:href="#path-6"></use>
                        <use fill-opacity="0.01" fill="none" xlink:href="#path-6"></use>
                    </g>
                    <path d="M49.5002634,49.3750752 C50.2451601,49.3750752 50.8899747,49.1034991 51.4338795,48.5587666 C51.9779347,48.0147866 52.2506396,47.3698967 52.2506396,46.625301 L52.2506396,32.8751505 C52.2506396,32.1301785 51.9782357,31.4857402 51.4338795,30.9417602 C50.8900499,30.3971781 50.2451601,30.125 49.5002634,30.125 C48.7552914,30.125 48.1108531,30.3974791 47.566572,30.9417602 C47.022291,31.4857402 46.7501129,32.1304795 46.7501129,32.8751505 L46.7501129,46.6253762 C46.7501129,47.369972 47.022291,48.0147866 47.566572,48.5588418 C48.1108531,49.1034991 48.7555172,49.3750752 49.5002634,49.3750752 Z M59.4050041,36.2054009 C58.8034581,35.7471303 58.1231256,35.568036 57.3640067,35.6681933 C56.6048126,35.7685012 56.0032665,36.1265392 55.5592933,36.7422322 C55.1009475,37.343703 54.9258414,38.0204235 55.032997,38.7723936 C55.1400773,39.52474 55.4949549,40.1296723 56.0965009,40.5880182 C57.4995314,41.6478349 58.5851587,42.9442366 59.3510501,44.4767718 C60.1173929,46.0091565 60.5001129,47.6421501 60.5001129,49.3748495 C60.5001129,50.8648687 60.2101006,52.2861096 59.6301512,53.6398516 C59.0502771,54.9933678 58.2658743,56.1640272 57.2774696,57.1524319 C56.2890649,58.1405356 55.1187064,58.9246374 53.7649644,59.5048126 C52.4114482,60.0849877 50.9899063,60.3754515 49.5003386,60.3754515 C48.0109967,60.3754515 46.5893795,60.0849877 45.2358633,59.5048126 C43.8821966,58.9246374 42.7114619,58.1405356 41.7230572,57.1524319 C40.735104,56.1640272 39.9508517,54.993443 39.3706766,53.6398516 C38.7906519,52.2861096 38.5005644,50.8648687 38.5005644,49.3748495 C38.5005644,47.6421501 38.8837358,46.0093823 39.6499282,44.4767718 C40.4161958,42.9443871 41.5011458,41.6480606 42.9047031,40.5880182 C43.5062491,40.1293713 43.8605999,39.5245143 43.968207,38.7723936 C44.0755883,38.0207244 43.9002565,37.343703 43.4418354,36.7422322 C42.997787,36.1265392 42.4000787,35.7684259 41.647958,35.6681933 C40.8959126,35.5679607 40.2118176,35.7471303 39.5960494,36.2054009 C37.5047099,37.7664557 35.8829286,39.7001471 34.729727,42.0059481 C33.5766008,44.3120502 33.0002634,46.7683507 33.0002634,49.3749248 C33.0002634,51.6096149 33.4371631,53.7434704 34.3107368,55.7773191 C35.1846114,57.8111677 36.3588829,59.5653886 37.8343788,61.0408845 C39.3094233,62.5160042 41.0640204,63.6908024 43.0980196,64.5636989 C45.1318682,65.437724 47.2659495,65.875 49.5002634,65.875 C51.7346525,65.875 53.8686585,65.437724 55.9025824,64.5636989 C57.9366569,63.6905014 59.6911787,62.515929 61.1664489,61.0408845 C62.6414934,59.5658401 63.8157648,57.8111677 64.689489,55.7773191 C65.5632132,53.7434704 65.9997366,51.6090881 65.9997366,49.3749248 C65.9998119,46.7682754 65.424227,44.311975 64.2711007,42.0059481 C63.1178992,39.7001471 61.4960426,37.7664557 59.4050041,36.2054009 Z" id="Shape-Copy" fill="#9A8E02" filter="url(#filter-7)" sketch:type="MSShapeGroup"></path>
                </g>
            </g>
        </g>
    </g>
</svg>