<?xml version="1.0" encoding="UTF-8" standalone="no"?>
<svg width="22px" height="22px" viewBox="0 0 22 22" version="1.1" xmlns="http://www.w3.org/2000/svg" xmlns:xlink="http://www.w3.org/1999/xlink" xmlns:sketch="http://www.bohemiancoding.com/sketch/ns">
    <!-- Generator: Sketch 3.3.1 (12002) - http://www.bohemiancoding.com/sketch -->
    <title>icon</title>
    <desc>Created with Sketch.</desc>
    <defs></defs>
    <g id="Page-1" stroke="none" stroke-width="1" fill="none" fill-rule="evenodd" sketch:type="MSPage">
        <g id="01-2-home-(float)" sketch:type="MSArtboardGroup" transform="translate(-315.000000, -481.000000)" fill="#FFFFFF">
            <g id="icon" sketch:type="MSLayerGroup" transform="translate(307.000000, 473.000000)">
                <path d="M24.4948595,14.3629765 C23.8410784,14.3629765 23.2323399,14.5778225 22.7215229,14.9461918 C22.1113464,13.3295682 20.6749118,12.1939797 18.9999281,12.1939797 C17.3249804,12.1939797 15.8885817,13.3294959 15.2784052,14.9461918 C14.7675163,14.5778225 14.1588856,14.3629765 13.5049248,14.3629765 C12.1887353,14.3629765 11.0551242,15.2293387 10.5379085,16.4768699 L27.4619477,16.4768699 C26.9445882,15.2293387 25.8111569,14.3629765 24.4948595,14.3629765 Z M29.817134,18.5262588 C29.6971765,18.2874045 29.4537745,18.1367736 29.1876895,18.1367736 L8.81231046,18.1367736 C8.54629739,18.1367736 8.30296732,18.2873321 8.18293791,18.5261141 C7.85991176,19.1691334 7.93863725,21.0386765 8.62919281,22.9380131 C9.33531373,24.8801599 10.9000817,27.5039779 14.3440163,28.9751773 C14.4312614,29.0123831 14.5249771,29.0316187 14.6196634,29.0316187 L23.3802288,29.0316187 C23.474915,29.0316187 23.5687026,29.0124554 23.6558758,28.9751773 C27.0992353,27.5042671 28.6639314,24.8809553 29.3701961,22.9392063 C30.0611111,21.0396166 30.1401601,19.1695673 29.817134,18.5262588 Z M15.8090294,10.614851 C15.9120915,10.9048678 16.1835686,11.0857621 16.4732353,11.0857621 C16.5519608,11.0857621 16.6319804,11.0724201 16.7103464,11.0442899 C17.0771209,10.9124608 17.2682549,10.5066326 17.1372255,10.1377209 L16.5495523,8.48269834 C16.4185588,8.11385896 16.0150817,7.92161124 15.6483072,8.05329568 C15.2815327,8.18505244 15.0903987,8.59095294 15.2213922,8.95979232 L15.8090294,10.614851 Z M18.6297386,10.614851 C18.7327288,10.9049401 19.0042059,11.0857621 19.2938007,11.0857621 C19.3725261,11.0857621 19.4526176,11.0724201 19.5309837,11.0442175 C19.8976863,10.9124608 20.0888203,10.5066326 19.9578627,10.1377209 L19.3701176,8.48269834 C19.2391242,8.11378664 18.8356471,7.92153892 18.4688725,8.05333184 C18.102098,8.1850886 17.9109641,8.59091678 18.0419935,8.95982848 L18.6297386,10.614851 Z M21.4503758,10.614851 C21.5534379,10.9049401 21.8248431,11.0857621 22.1145098,11.0857621 C22.1932353,11.0857621 22.2733268,11.0724201 22.3516928,11.0442175 C22.7183954,10.9124608 22.9095294,10.5066326 22.7785719,10.1377209 L22.1908268,8.48269834 C22.0597614,8.11378664 21.6564281,7.92153892 21.2895098,8.05333184 C20.9228072,8.1850886 20.7316732,8.59091678 20.8626307,8.95982848 L21.4503758,10.614851 Z" sketch:type="MSShapeGroup"></path>
            </g>
        </g>
    </g>
</svg>