<?xml version="1.0" encoding="UTF-8" standalone="no"?>
<svg width="20px" height="21px" viewBox="0 0 20 21" version="1.1" xmlns="http://www.w3.org/2000/svg" xmlns:xlink="http://www.w3.org/1999/xlink" xmlns:sketch="http://www.bohemiancoding.com/sketch/ns">
    <!-- Generator: Sketch 3.3.3 (12072) - http://www.bohemiancoding.com/sketch -->
    <title>Results</title>
    <desc>Created with Sketch.</desc>
    <defs></defs>
    <g id="Page-1" stroke="none" stroke-width="1" fill="none" fill-rule="evenodd" sketch:type="MSPage">
        <g id="01_Chief_show-result" sketch:type="MSArtboardGroup" transform="translate(-340.000000, -31.000000)">
            <g id="nav-bar" sketch:type="MSLayerGroup">
                <g id="Results" transform="translate(335.000000, 26.000000)" sketch:type="MSShapeGroup">
                    <rect id="Rectangle-28" x="0" y="0" width="30" height="30"></rect>
                    <path d="M24.4462914,5.64321617 C24.0667228,5.23444328 23.5328917,5 22.9815937,5 L21.3890935,5 L19.907344,5 L17.5712712,5 L16.2956661,5 L13.7042993,5 L12.4286942,5 L10.0926214,5 L8.6108719,5 L7.01837166,5 C6.46710828,5 5.93324265,5.23444328 5.55370864,5.64321617 C5.17490097,6.05114039 4.9740831,6.60701494 5.00268737,7.168229 C5.08241269,8.73277542 5.45440652,10.1604041 6.10825788,11.4114755 C6.63873389,12.4264416 7.35079684,13.3197659 8.2246624,14.0665898 C8.37394417,14.1941722 8.5227417,14.3129143 8.66980983,14.4235942 C8.74355143,14.9694969 8.88636524,15.5015028 9.09797456,16.012964 C9.40985447,16.7667893 9.85600495,17.4434216 10.4240089,18.0241903 C10.9920475,18.604959 11.6539233,19.0610448 12.39127,19.3798594 C12.9888813,19.6383128 13.6151661,19.7965885 14.2591253,19.853555 L14.2591253,21.337337 C13.6039595,21.4428541 12.9922709,21.6872692 12.4881164,22.0512397 C11.6534736,22.6538969 11.1747758,23.541033 11.1747758,24.4851358 L11.1747758,24.9979997 C11.1747758,25.5513892 11.6304352,26 12.1749383,26 L17.8250617,26 C18.3774362,26 18.8252242,25.5536841 18.8252242,24.9979997 L18.8252242,24.4851358 C18.8252242,23.541033 18.3465264,22.6538969 17.511849,22.0512397 C17.0077291,21.6872692 16.3960059,21.4428541 15.7408747,21.337337 L15.7408747,19.853555 C16.3848339,19.7965885 17.0111187,19.6382774 17.6086954,19.3798594 C18.3460422,19.0610448 19.0079179,18.604959 19.5759565,18.0241903 C20.1440296,17.4434216 20.5901455,16.7667893 20.9020254,16.012964 C21.1136348,15.5015382 21.2564486,14.9695323 21.3301902,14.4235942 C21.4772583,14.3129497 21.6260558,14.1941722 21.7753376,14.0665898 C22.6492032,13.3197659 23.3612661,12.4264062 23.8917075,11.4114755 C24.5455935,10.1604041 24.9175527,8.73277542 24.9973126,7.168229 C25.0259169,6.60701494 24.825099,6.05117575 24.4462914,5.64321617 Z M19.5079565,15.4914957 C18.7775619,17.1826344 17.12308,18.3630192 15.1986734,18.3630192 L14.801292,18.3630192 C12.8768854,18.3630192 11.2224035,17.1826344 10.4920089,15.4914957 C10.2389978,14.9057411 10.0969103,14.2587413 10.0929327,13.578184 C10.0928635,13.5684597 10.0925868,13.5588061 10.0925868,13.5490465 L10.0925868,6.51482888 L12.4286596,6.51482888 L13.9270806,6.51482888 L16.0728503,6.51482888 L17.5712366,6.51482888 L19.9073094,6.51482888 L19.9073094,13.5490112 C19.9073094,13.5587354 19.9069981,13.5684243 19.906929,13.5781486 C19.9030551,14.258706 19.7609676,14.9057057 19.5079565,15.4914957 L19.5079565,15.4914957 Z M6.48243076,7.08937403 C6.46648569,6.77667691 6.71209501,6.51482888 7.01837166,6.51482888 L8.6108719,6.51482888 L8.6108719,12.3694751 C7.55984665,11.2644799 6.60967997,9.58607114 6.48243076,7.08937403 L6.48243076,7.08937403 Z M17.3434401,24.4851358 L12.6565253,24.4851358 C12.6565253,23.6123561 13.571689,22.8940333 14.7469197,22.8029434 L15.2531149,22.8029434 C16.4282765,22.8940333 17.3434401,23.6123915 17.3434401,24.4851358 L17.3434401,24.4851358 Z M23.5175347,7.08937403 C23.3902854,9.58603578 22.4401534,11.2644799 21.3891281,12.3694751 L21.3891281,6.51482888 L22.9816283,6.51482888 C23.287905,6.51482888 23.5334797,6.77667691 23.5175347,7.08937403 L23.5175347,7.08937403 Z" id="Shape" fill="#FFFFFF"></path>
                </g>
            </g>
        </g>
    </g>
</svg>