<?xml version="1.0" encoding="UTF-8" standalone="no"?>
<svg width="20px" height="20px" viewBox="0 0 20 20" version="1.1" xmlns="http://www.w3.org/2000/svg" xmlns:xlink="http://www.w3.org/1999/xlink" xmlns:sketch="http://www.bohemiancoding.com/sketch/ns">
    <!-- Generator: Sketch 3.3.3 (12072) - http://www.bohemiancoding.com/sketch -->
    <title>Settings_press</title>
    <desc>Created with Sketch.</desc>
    <defs></defs>
    <g id="Page-1" stroke="none" stroke-width="1" fill="none" fill-rule="evenodd" sketch:type="MSPage">
        <g id="02_Start" sketch:type="MSArtboardGroup" transform="translate(-15.000000, -31.000000)">
            <g id="nav-bar" sketch:type="MSLayerGroup">
                <g id="Settings_press" transform="translate(10.000000, 26.000000)" sketch:type="MSShapeGroup">
                    <rect id="Rectangle-27" x="0" y="0" width="30" height="30"></rect>
                    <path d="M22.7320198,11.4526809 C23.1096576,12.2946275 23.3387166,13.1799096 23.4315784,14.0590009 L23.9825581,14.0590009 C24.1620909,14.0590009 24.3044789,14.2075797 24.3044789,14.3871124 L24.3044789,15.6066968 C24.3044789,15.7862295 24.1559001,15.9348084 23.9825581,15.9348084 L23.4315784,15.9348084 C23.3325258,16.832472 23.0972761,17.7115633 22.7320198,18.5411283 L23.2087102,18.8135228 C23.3634798,18.9001938 23.4191968,19.1044897 23.3263351,19.2592593 L22.7134475,20.3178833 C22.6267765,20.4726529 22.4224806,20.5283699 22.267711,20.4355082 L21.7910207,20.1631137 C21.2709948,20.8812446 20.6271533,21.5250861 19.8842593,22.0698751 L20.1566537,22.5465655 C20.2433247,22.7013351 20.1937984,22.8994401 20.0390289,22.9923019 L18.9804048,23.6051895 C18.8256352,23.6918605 18.6275301,23.6423342 18.5346684,23.4875646 L18.2622739,23.0108742 C17.4141365,23.3885121 16.5350452,23.6175711 15.6559539,23.7104328 L15.6559539,24.2614126 C15.6559539,24.4409453 15.5073751,24.5833333 15.3340332,24.5833333 L14.1144488,24.5833333 C13.934916,24.5833333 13.792528,24.4347545 13.792528,24.2614126 L13.792528,23.7104328 C12.8948643,23.6113803 12.015773,23.3761305 11.186208,23.0108742 L10.9138135,23.4875646 C10.8271425,23.6423342 10.6228467,23.6980512 10.4680771,23.6051895 L9.40945306,22.9923019 C9.25468346,22.8994401 9.19896641,22.7013351 9.29182817,22.5465655 L9.56422265,22.0698751 C8.84609173,21.5436585 8.20225022,20.9060078 7.65746124,20.1569229 L7.18077089,20.4293174 C7.02600129,20.5159884 6.82789621,20.4664621 6.73503445,20.3116925 L6.12214686,19.2530685 C6.03547588,19.0982989 6.08500215,18.9001938 6.23977175,18.807332 L6.7164621,18.5349376 C6.33882429,17.692991 6.10976529,16.8077089 6.01690353,15.9286176 L5.46592377,15.9286176 C5.28639104,15.9286176 5.14400301,15.7800388 5.14400301,15.6066968 L5.14400301,14.3871124 C5.14400301,14.2075797 5.29258183,14.0651916 5.46592377,14.0651916 L6.01690353,14.0651916 C6.11595607,13.167528 6.35120586,12.2884367 6.7164621,11.4588717 L6.23977175,11.1864772 C6.08500215,11.0998062 6.0292851,10.8955103 6.12214686,10.7407407 L6.73503445,9.68211671 C6.82170543,9.52734711 7.02600129,9.47163006 7.18077089,9.56449182 L7.65746124,9.8368863 C8.18367786,9.11875538 8.8213286,8.47491387 9.56422265,7.93012489 L9.29182817,7.45343454 C9.20515719,7.29866494 9.25468346,7.10055986 9.40945306,7.00769811 L10.4680771,6.39481051 C10.6228467,6.30813953 10.8209518,6.35766581 10.9138135,6.5124354 L11.1923988,6.98912575 C12.0343454,6.61148794 12.9196275,6.38242894 13.7987188,6.28956718 L13.7987188,5.73858742 C13.7987188,5.55905469 13.9472976,5.41666667 14.1206395,5.41666667 L15.3402239,5.41666667 C15.5197567,5.41666667 15.6683355,5.56524548 15.6621447,5.73858742 L15.6621447,6.28956718 C16.5598084,6.38861972 17.4388997,6.62386951 18.2684647,6.98912575 L18.54705,6.5124354 C18.6337209,6.35766581 18.8380168,6.30194875 18.9927864,6.39481051 L20.0514104,7.00769811 C20.20618,7.09436908 20.2618971,7.29866494 20.1690353,7.45343454 L19.8966408,7.93012489 C20.6147717,8.45015073 21.2586133,9.09399225 21.8034022,9.84307709 L22.2800926,9.5706826 C22.4348622,9.48401163 22.6329673,9.5335379 22.725829,9.68830749 L23.3387166,10.7469315 C23.4315784,10.9017011 23.3758613,11.0998062 23.2210917,11.192668 L22.7320198,11.4526809 L22.7320198,11.4526809 Z M10.7776163,13.4584948 L8.1712963,11.9541344 C7.21791559,14.0156654 7.24267873,16.4919789 8.46845392,18.609227 C9.68803833,20.726475 11.8238587,21.9893949 14.0834948,22.1936908 L14.0834948,19.1849699 C12.8577196,18.9992463 11.7186154,18.2749246 11.0500108,17.1172481 C10.3875969,15.9595715 10.3256891,14.6161714 10.7776163,13.4584948 L10.7776163,13.4584948 L10.7776163,13.4584948 Z M8.71608527,10.9883721 L11.3100237,12.4865418 C11.644326,12.0284238 12.0838717,11.6322136 12.6038975,11.3288652 C14.4673234,10.2516688 16.8074397,10.7531223 18.0827412,12.4184432 L20.6828704,10.9202735 C18.5718131,7.83107235 14.4054156,6.84673773 11.1119186,8.74730835 C10.1213932,9.31686047 9.31040052,10.0907084 8.71608527,10.9883721 L8.71608527,10.9883721 L8.71608527,10.9883721 Z M21.2400409,11.8736542 L18.6399117,13.3718239 C19.4447136,15.3095392 18.7080103,17.5877476 16.8445844,18.664944 C16.3183678,18.9682924 15.7611972,19.1478252 15.1978359,19.209733 L15.1978359,22.2060724 C16.2688415,22.1379737 17.3460379,21.8284345 18.3427541,21.2526916 C21.6300603,19.352121 22.8620263,15.2476314 21.2400409,11.8736542 L21.2400409,11.8736542 L21.2400409,11.8736542 Z M17.0241171,13.6689815 C17.7546296,14.9380922 17.3212748,16.5600775 16.0521641,17.2967808 C14.7830534,18.0272933 13.161068,17.5939384 12.4243648,16.3248277 C11.6938523,15.0557171 12.1272071,13.4337317 13.3963178,12.6970284 C14.6654285,11.9665159 16.2936047,12.3998708 17.0241171,13.6689815 L17.0241171,13.6689815 L17.0241171,13.6689815 Z" id="Settings" fill="#FFF520"></path>
                </g>
            </g>
        </g>
    </g>
</svg>