<?xml version="1.0" encoding="UTF-8" standalone="no"?>
<svg width="14px" height="20px" viewBox="0 0 14 20" version="1.1" xmlns="http://www.w3.org/2000/svg" xmlns:xlink="http://www.w3.org/1999/xlink" xmlns:sketch="http://www.bohemiancoding.com/sketch/ns">
    <!-- Generator: Sketch 3.3.1 (12002) - http://www.bohemiancoding.com/sketch -->
    <title>icon</title>
    <desc>Created with Sketch.</desc>
    <defs></defs>
    <g id="Page-1" stroke="none" stroke-width="1" fill="none" fill-rule="evenodd" sketch:type="MSPage">
        <g id="01-2-home-(float)" sketch:type="MSArtboardGroup" transform="translate(-319.000000, -540.000000)" fill="#FFFFFF">
            <g id="icon-water" sketch:type="MSLayerGroup" transform="translate(307.000000, 531.000000)">
                <path d="M23.2492854,14.5704747 C21.8328916,12.2326252 20.2575112,10.2092577 19.4444436,9.21120063 C19.3356386,9.07753926 19.1723789,8.99994792 19.0000521,9.00000003 C18.8276732,9.00000003 18.6644657,9.07759137 18.5556085,9.21125274 C17.742593,10.2096225 16.1672126,12.2336674 14.7508189,14.5717253 C12.9255204,17.5848644 12,20.0760727 12,21.9759923 C12,25.8358098 15.1401825,28.9759923 19,28.9759923 C22.8598175,28.9759923 26,25.8358098 26,21.9759923 C26.0000521,20.0748221 25.074636,17.583249 23.2492854,14.5704747 L23.2492854,14.5704747 Z M19.9605902,26.3977608 C19.5518417,26.5022929 19.1275645,26.5552363 18.6992749,26.5552363 C16.0840976,26.5552363 13.9565107,24.5787676 13.9565107,22.1493613 C13.9565107,21.5628667 14.1112765,20.8776241 14.4163788,20.112758 C14.4679153,19.9835259 14.6147604,19.9097907 14.7595212,19.9410565 C14.9041777,19.9722181 15.0013102,20.0983236 14.9864068,20.2354763 C14.9685853,20.3995176 14.9595182,20.559755 14.9595182,20.7115505 C14.9595182,23.3553361 17.0898148,25.5692687 19.9147858,25.861083 C20.0553777,25.8756216 20.1650686,25.980779 20.1762722,26.1118349 C20.1875279,26.2428908 20.0969613,26.3628473 19.9605902,26.3977608 L19.9605902,26.3977608 Z" id="icon" sketch:type="MSShapeGroup"></path>
            </g>
        </g>
    </g>
</svg>