<?xml version="1.0" encoding="UTF-8" standalone="no"?>
<svg width="23px" height="26px" viewBox="0 0 23 26" version="1.1" xmlns="http://www.w3.org/2000/svg" xmlns:xlink="http://www.w3.org/1999/xlink" xmlns:sketch="http://www.bohemiancoding.com/sketch/ns">
    <!-- Generator: Sketch 3.3.1 (12002) - http://www.bohemiancoding.com/sketch -->
    <title>trash</title>
    <desc>Created with Sketch.</desc>
    <defs></defs>
    <g id="Page-1" stroke="none" stroke-width="1" fill="none" fill-rule="evenodd" sketch:type="MSPage">
        <g id="04_Results" sketch:type="MSArtboardGroup" transform="translate(-336.000000, -136.000000)">
            <g id="Trash" sketch:type="MSLayerGroup" transform="translate(319.000000, 121.000000)">
                <g id="trash" transform="translate(6.000000, 5.000000)" sketch:type="MSShapeGroup">
                    <path d="M27.2,33.8905016 L28.5210257,33.8905016 C29.2134235,33.8905016 29.7774708,33.3283724 29.7774708,32.645042 L29.7774708,17.7579075 L31.2774708,17.7579075 L31.2774708,32.645042 C31.2774708,34.1579454 30.040709,35.3905016 28.5210257,35.3905016 L16.1707518,35.3905016 C14.6520852,35.3905016 13.4143066,34.1569169 13.4143066,32.6375872 L13.4143066,20.8289397 L13.4143066,17.8260254 L14.9143066,17.8260254 L14.9143066,20.8289397 L14.9143066,32.6375872 C14.9143066,33.327348 15.4793748,33.8905016 16.1707518,33.8905016 L17.6,33.8905016 L17.6,17.9281718 L19.1,17.9281718 L19.1,33.8905016 L19.1,33.8905016 L21.7,33.8905016 L21.7,33.8905016 L21.7,17.9281718 L23.2,17.9281718 L23.2,33.8905016 L25.7,33.8905016 L25.7,17.9281718 L27.2,17.9281718 L27.2,33.8905016 L27.2,33.8905016 Z M33.2372973,16.2 L33.2372973,14.7 L11.6097656,14.7 L11.6097656,16.2 L33.2372973,16.2 Z M21.2518231,14.7 L21.2518231,12.5492572 C21.2518231,12.4162278 21.3657516,12.3037705 21.5096212,12.3037705 L23.1821563,12.3037705 C23.3242284,12.3037705 23.4399543,12.4184859 23.4399543,12.5492572 L23.4399543,14.7 C23.4399543,15.1142136 23.7757408,15.45 24.1899543,15.45 C24.6041679,15.45 24.9399543,15.1142136 24.9399543,14.7 L24.9399543,12.5492572 C24.9399543,11.5870997 24.1497249,10.8037705 23.1821563,10.8037705 L21.5096212,10.8037705 C20.5416572,10.8037705 19.7518231,11.5834051 19.7518231,12.5492572 L19.7518231,14.7 C19.7518231,15.1142136 20.0876095,15.45 20.5018231,15.45 C20.9160366,15.45 21.2518231,15.1142136 21.2518231,14.7 L21.2518231,14.7 Z" id="Shape" fill="#FFFFFF"></path>
                    <rect id="Rectangle-1228" x="0" y="0.741935484" width="45" height="44.516129"></rect>
                </g>
            </g>
        </g>
    </g>
</svg>