<?xml version="1.0" encoding="UTF-8" standalone="no"?>
<svg width="18px" height="20px" viewBox="0 0 18 20" version="1.1" xmlns="http://www.w3.org/2000/svg" xmlns:xlink="http://www.w3.org/1999/xlink" xmlns:sketch="http://www.bohemiancoding.com/sketch/ns">
    <!-- Generator: Sketch 3.3.1 (12002) - http://www.bohemiancoding.com/sketch -->
    <title>icon</title>
    <desc>Created with Sketch.</desc>
    <defs></defs>
    <g id="Page-1" stroke="none" stroke-width="1" fill="none" fill-rule="evenodd" sketch:type="MSPage">
        <g id="01-2-home-(float)" sketch:type="MSArtboardGroup" transform="translate(-317.000000, -365.000000)" fill="#FFFFFF">
            <g id="icon" sketch:type="MSLayerGroup" transform="translate(307.000000, 357.000000)">
                <path d="M27.9734441,25.3124334 L26.3349761,15.524315 C26.1808869,14.6014062 25.3815747,13.9269103 24.4460623,13.9269103 L21.9842947,13.9269103 C22.2729578,13.423986 22.4380243,12.8413745 22.4380243,12.2209521 C22.4380243,10.3251267 20.8959128,8.7826087 18.9996809,8.7826087 C17.1038555,8.7826087 15.5613375,10.3251267 15.5613375,12.2209521 C15.5613375,12.8413745 15.726404,13.423986 16.0150671,13.9269103 L13.5532994,13.9269103 C12.6173805,13.9269103 11.8184749,14.6022193 11.6643857,15.5251281 L10.0263243,25.3144662 C9.93322025,25.8694312 10.0897488,26.4406588 10.453627,26.8699944 C10.8179117,27.2997365 11.3521417,27.5514019 11.9156446,27.5514019 L26.0853435,27.5514019 C26.6488464,27.5514019 27.1830764,27.2997365 27.5473611,26.8699944 C27.9108326,26.4398457 28.0669546,25.8678049 27.9734441,25.3124334 L27.9734441,25.3124334 Z M19.0000874,10.785768 C19.7912683,10.785768 20.4352716,11.4297713 20.4352716,12.2213587 C20.4352716,13.012946 19.7912683,13.6565428 19.0000874,13.6565428 C18.2085001,13.6565428 17.5644968,13.0125395 17.5644968,12.2209521 C17.5644968,11.4293647 18.2085001,10.785768 19.0000874,10.785768 L19.0000874,10.785768 Z" sketch:type="MSShapeGroup"></path>
            </g>
        </g>
    </g>
</svg>