<?xml version="1.0" encoding="UTF-8" standalone="no"?>
<svg width="20px" height="20px" viewBox="0 0 20 20" version="1.1" xmlns="http://www.w3.org/2000/svg" xmlns:xlink="http://www.w3.org/1999/xlink" xmlns:sketch="http://www.bohemiancoding.com/sketch/ns">
    <!-- Generator: Sketch 3.3.1 (12002) - http://www.bohemiancoding.com/sketch -->
    <title>iconicon-</title>
    <desc>Created with Sketch.</desc>
    <defs></defs>
    <g id="Page-1" stroke="none" stroke-width="1" fill="none" fill-rule="evenodd" sketch:type="MSPage">
        <g id="01-2-home-(float)" sketch:type="MSArtboardGroup" transform="translate(-317.000000, -424.000000)" fill="#FFFFFF">
            <g id="icon" sketch:type="MSLayerGroup" transform="translate(307.000000, 415.000000)">
                <path d="M10.168,27.1680656 C9.96131148,27.6609836 10.0731803,28.2299016 10.4511475,28.6078689 C10.8291148,28.9858361 11.3980328,29.0977049 11.8909508,28.8909508 L16.708459,26.8709508 L12.188,22.3505574 L10.168,27.1680656 Z M29.6079344,12.7087869 L26.3501639,9.45108197 C25.8361311,8.93704918 25.0026885,8.93704918 24.4885902,9.45108197 L13.3949508,20.544918 C13.3921311,20.5476721 13.3897705,20.5507541 13.3870164,20.5535738 L18.5055082,25.6720656 C18.5083279,25.6693115 18.5114098,25.6669508 18.5141639,25.6641967 L29.6079344,14.5704262 C30.1219672,14.0563279 30.1219672,13.2228852 29.6079344,12.7087869 Z" sketch:type="MSShapeGroup"></path>
            </g>
        </g>
    </g>
</svg>