<?xml version="1.0" encoding="UTF-8" standalone="no"?>
<svg width="365px" height="140px" viewBox="0 0 365 140" version="1.1" xmlns="http://www.w3.org/2000/svg" xmlns:xlink="http://www.w3.org/1999/xlink" xmlns:sketch="http://www.bohemiancoding.com/sketch/ns">
    <!-- Generator: Sketch 3.3.3 (12072) - http://www.bohemiancoding.com/sketch -->
    <title>Logo App_start screen</title>
    <desc>Created with Sketch.</desc>
    <defs>
        <path d="M265.481479,132.527523 L318.444365,132.527523 C320.315911,132.527523 321.833098,134.052741 321.833098,135.925664 C321.833098,137.802406 320.302574,139.323806 318.444365,139.323806 L80.5556349,139.323806 C78.6840894,139.323806 77.166902,137.798587 77.166902,135.925664 C77.166902,134.048923 78.697426,132.527523 80.5556349,132.527523 L131.833459,132.527523 L131.833459,132.527523 C119.621856,126.781258 111.148318,114.357379 111.148318,99.9918343 C111.148318,80.1788891 127.26837,64.0588375 147.082148,64.0588375 C166.897177,64.0588375 183.016812,80.1788891 183.016812,99.9918343 C183.016812,114.357627 174.543118,126.781331 162.331318,132.527523 L234.984137,132.527523 C222.772851,126.781258 214.299313,114.357379 214.299313,99.9918343 C214.298896,80.1788891 230.418948,64.0588375 250.23231,64.0588375 C270.047338,64.0588375 286.166973,80.1788891 286.166973,99.9918343 C286.166973,114.357627 277.69328,126.781331 265.481471,132.527527 Z M147.082148,125.179519 C160.970295,125.179519 172.269416,113.881231 172.269416,99.992251 C172.269416,86.104104 160.970295,74.804983 147.082148,74.804983 C133.194835,74.804983 121.895714,86.104104 121.895714,99.992251 C121.895714,113.881231 133.194835,125.179519 147.082148,125.179519 L147.082148,125.179519 Z M250.23231,125.179519 C264.12129,125.179519 275.419578,113.881231 275.419578,99.992251 C275.419578,86.104104 264.12129,74.804983 250.23231,74.804983 C236.344996,74.804983 225.045875,86.104104 225.045875,99.992251 C225.045458,113.881231 236.344579,125.179519 250.23231,125.179519 Z M204.428237,54.6346882 C204.773925,54.3664673 204.744092,53.9903936 204.339941,53.7836214 L186.02836,44.4150313 C185.633907,44.213221 185.039017,44.2791027 184.701761,44.5604095 L169.887196,56.917312 C169.210971,57.4813548 167.951503,58.0257338 167.077884,58.1327526 L148.677735,60.3867795 C144.908583,60.5884676 141.502387,57.9386018 140.852318,54.127779 C140.15141,50.0248417 142.911287,47.3683085 147.014224,46.6678172 L161.659658,44.4810224 C162.535515,44.3502431 163.670526,43.6593201 164.187544,42.9494177 C164.187544,42.9494177 175.077216,27.9241526 177.754584,25.1276045 C185.747936,16.7762977 190.538447,12.0832975 199.731927,16.6250316 L227.787417,30.4865091 C235.860361,34.5486087 241.143424,45.3155897 236.600857,54.5082362 C234.366035,59.0312183 230.857328,61.3147951 225.732198,64.6409829 L209.490884,74.5474555 L207.560261,105.586597 C207.285232,109.881638 203.69985,113.288252 199.341469,113.260749 C194.823487,113.232412 191.183932,109.545353 191.213102,105.025704 L191.446044,68.8906026 C191.480631,66.2369864 192.729097,63.5837869 195.048094,61.9127755 L204.428237,54.6346882 Z M170.860099,29.510155 C169.076993,30.7098662 167.057611,31.5407881 164.949469,31.9524987 L164.927384,31.9566658 C159.704744,32.9701071 154.211658,31.2882612 150.445007,27.5316108 C146.624599,23.7187044 144.946504,18.07977 146.060789,12.797957 C147.145072,7.65240852 150.782126,3.24777236 155.63931,1.22589018 C160.60984,-0.840580085 166.405458,-0.267602344 170.86885,2.74146839 C175.333076,5.74970571 178.038365,10.9065054 177.988776,16.2895792 C177.938354,21.5497232 175.221814,26.5744254 170.860099,29.510155 Z" id="path-1"></path>
        <linearGradient x1="31.1235927%" y1="50%" x2="100%" y2="50%" id="linearGradient-2">
            <stop stop-color="#58656F" stop-opacity="0" offset="0%"></stop>
            <stop stop-color="#FFFFFF" stop-opacity="0.562613225" offset="100%"></stop>
        </linearGradient>
        <linearGradient x1="100%" y1="50%" x2="18.75%" y2="50%" id="linearGradient-3">
            <stop stop-color="#5B6A75" stop-opacity="0" offset="0%"></stop>
            <stop stop-color="#EFEFEF" offset="100%"></stop>
        </linearGradient>
    </defs>
    <g id="Page-1" stroke="none" stroke-width="1" fill="none" fill-rule="evenodd" sketch:type="MSPage">
        <g id="01_Chief" sketch:type="MSArtboardGroup" transform="translate(-5.000000, -194.000000)">
            <g id="Logo-App_start-screen" sketch:type="MSLayerGroup" transform="translate(187.500000, 264.000000) scale(-1, 1) translate(-187.500000, -264.000000) translate(-12.000000, 194.000000)">
                <g id="Rectangle-796-Copy">
                    <use fill="#FFFFFF" fill-rule="evenodd" sketch:type="MSShapeGroup" xlink:href="#path-1"></use>
                    <use fill="none" xlink:href="#path-1"></use>
                </g>
                <rect id="Path-Copy" opacity="0.8" fill="url(#linearGradient-2)" sketch:type="MSShapeGroup" x="0" y="132.527523" width="55.166902" height="6.79628322" rx="32"></rect>
                <rect id="Path-Copy-2" opacity="0.8" fill="url(#linearGradient-2)" sketch:type="MSShapeGroup" transform="translate(371.183451, 135.925664) scale(-1, 1) translate(-371.183451, -135.925664) " x="343.6" y="132.527523" width="55.166902" height="6.79628322" rx="32"></rect>
                <path d="M261,37.375 C261,34.9587542 262.95444,33 265.376368,33 L311.087046,33 C313.504048,33 315.463415,34.9636708 315.463415,37.375 C315.463415,39.7912458 313.508975,41.75 311.087046,41.75 L265.376368,41.75 C262.959367,41.75 261,39.7863292 261,37.375 Z M277.902439,58 C277.902439,55.5837542 279.867825,53.625 282.272917,53.625 L333.629522,53.625 C336.043271,53.625 338,55.5886708 338,58 C338,60.4162458 336.034614,62.375 333.629522,62.375 L282.272917,62.375 C279.859168,62.375 277.902439,60.4113292 277.902439,58 Z M301.065041,78.625 C301.065041,76.2087542 303.021718,74.25 305.438647,74.25 L325.488182,74.25 C327.903658,74.25 329.861789,76.2136708 329.861789,78.625 C329.861789,81.0412458 327.905111,83 325.488182,83 L305.438647,83 C303.023171,83 301.065041,81.0363292 301.065041,78.625 Z" id="Rectangle-325-Copy-6" fill="url(#linearGradient-3)" sketch:type="MSShapeGroup"></path>
            </g>
        </g>
    </g>
</svg>