<?xml version="1.0" encoding="UTF-8" standalone="no"?>
<svg width="306px" height="251px" viewBox="0 0 306 251" version="1.1" xmlns="http://www.w3.org/2000/svg" xmlns:xlink="http://www.w3.org/1999/xlink" xmlns:sketch="http://www.bohemiancoding.com/sketch/ns">
    <!-- Generator: Sketch 3.3.3 (12072) - http://www.bohemiancoding.com/sketch -->
    <title>BG_Speedometr</title>
    <desc>Created with Sketch.</desc>
    <defs>
        <linearGradient x1="50%" y1="0%" x2="50%" y2="100%" id="linearGradient-1">
            <stop stop-color="#3B454D" offset="0%"></stop>
            <stop stop-color="#5A6E7B" offset="100%"></stop>
        </linearGradient>
        <filter x="-50%" y="-50%" width="200%" height="200%" filterUnits="objectBoundingBox" id="filter-2">
            <feOffset dx="0" dy="1" in="SourceAlpha" result="shadowOffsetOuter1"></feOffset>
            <feGaussianBlur stdDeviation="1" in="shadowOffsetOuter1" result="shadowBlurOuter1"></feGaussianBlur>
            <feColorMatrix values="0 0 0 0 0.559296579   0 0 0 0 0.653861414   0 0 0 0 0.709024235  0 0 0 0.345284194 0" in="shadowBlurOuter1" type="matrix" result="shadowMatrixOuter1"></feColorMatrix>
            <feOffset dx="0" dy="1" in="SourceAlpha" result="shadowOffsetInner1"></feOffset>
            <feGaussianBlur stdDeviation="1" in="shadowOffsetInner1" result="shadowBlurInner1"></feGaussianBlur>
            <feComposite in="shadowBlurInner1" in2="SourceAlpha" operator="arithmetic" k2="-1" k3="1" result="shadowInnerInner1"></feComposite>
            <feColorMatrix values="0 0 0 0 0.189888125   0 0 0 0 0.222182073   0 0 0 0 0.24566858  0 0 0 0.248867754 0" in="shadowInnerInner1" type="matrix" result="shadowMatrixInner1"></feColorMatrix>
            <feMerge>
                <feMergeNode in="shadowMatrixOuter1"></feMergeNode>
                <feMergeNode in="SourceGraphic"></feMergeNode>
                <feMergeNode in="shadowMatrixInner1"></feMergeNode>
            </feMerge>
        </filter>
        <path id="path-3" d="M272.579155,240.568325 C291.070316,215.510452 302,184.531608 302,151 C302,67.6050028 234.394997,0 151,0 C67.6050028,0 0,67.6050028 0,151 C0,184.823733 11.1209504,216.050028 29.9058449,241.22188 C31.3710803,243.185303 32.2734375,247 41.8027344,247 C106.668948,247 250.813477,247 259.552734,247 C268.291992,247 270.963172,242.758187 272.579155,240.568325 Z"></path>
        <linearGradient x1="48.8792449%" y1="0%" x2="48.8792449%" y2="120.198717%" id="linearGradient-4">
            <stop stop-color="#E7E7E7" offset="0%"></stop>
            <stop stop-color="#E0E0E0" offset="71.9367029%"></stop>
            <stop stop-color="#D6D6D6" offset="100%"></stop>
        </linearGradient>
        <filter x="-50%" y="-50%" width="200%" height="200%" filterUnits="objectBoundingBox" id="filter-5">
            <feOffset dx="0" dy="1" in="SourceAlpha" result="shadowOffsetOuter1"></feOffset>
            <feGaussianBlur stdDeviation="1" in="shadowOffsetOuter1" result="shadowBlurOuter1"></feGaussianBlur>
            <feColorMatrix values="0 0 0 0 0.609115538   0 0 0 0 0.680246618   0 0 0 0 0.735570791  0 0 0 0.7 0" in="shadowBlurOuter1" type="matrix" result="shadowMatrixOuter1"></feColorMatrix>
            <feOffset dx="0" dy="3" in="SourceAlpha" result="shadowOffsetInner1"></feOffset>
            <feGaussianBlur stdDeviation="4" in="shadowOffsetInner1" result="shadowBlurInner1"></feGaussianBlur>
            <feComposite in="shadowBlurInner1" in2="SourceAlpha" operator="arithmetic" k2="-1" k3="1" result="shadowInnerInner1"></feComposite>
            <feColorMatrix values="0 0 0 0 0.172928262   0 0 0 0 0.212557656   0 0 0 0 0.237776361  0 0 0 0.426086957 0" in="shadowInnerInner1" type="matrix" result="shadowMatrixInner1"></feColorMatrix>
            <feMerge>
                <feMergeNode in="shadowMatrixOuter1"></feMergeNode>
                <feMergeNode in="SourceGraphic"></feMergeNode>
                <feMergeNode in="shadowMatrixInner1"></feMergeNode>
            </feMerge>
        </filter>
        <path id="path-6" d="M258.086275,227.323461 C274.373192,205.207605 284,177.865954 284,148.271255 C284,74.6675733 224.453872,15 151,15 C77.5461283,15 18,74.6675733 18,148.271255 C18,178.12378 27.7952742,205.683831 44.3409097,227.900283 C45.6314813,229.633182 46.4262728,233 54.819627,233 C111.953445,233 238.915181,233 246.612673,233 C254.310165,233 256.662926,229.256213 258.086275,227.323461 Z"></path>
        <circle id="path-8" cx="133.000019" cy="133.004363" r="133"></circle>
        <circle id="path-10" cx="133.5" cy="133" r="133"></circle>
        <circle id="path-12" cx="133" cy="133" r="133"></circle>
    </defs>
    <g id="Page-1" stroke="none" stroke-width="1" fill="none" fill-rule="evenodd" sketch:type="MSPage">
        <g id="02_Start" sketch:type="MSArtboardGroup" transform="translate(-35.000000, -73.000000)">
            <g id="Speedometr" sketch:type="MSLayerGroup" transform="translate(37.000000, 74.000000)">
                <g id="BG_Speedometr">
                    <g id="Oval-49" filter="url(#filter-2)">
                        <use fill="url(#linearGradient-1)" sketch:type="MSShapeGroup" xlink:href="#path-3"></use>
                        <use fill-opacity="0.02" fill="none" xlink:href="#path-3"></use>
                    </g>
                    <mask id="mask-7" sketch:name="Mask" fill="white">
                        <use xlink:href="#path-6"></use>
                    </mask>
                    <g id="Mask" filter="url(#filter-5)">
                        <use fill="url(#linearGradient-4)" sketch:type="MSShapeGroup" xlink:href="#path-6"></use>
                        <use fill-opacity="0.01" fill="none" xlink:href="#path-6"></use>
                    </g>
                    <g id="MPH" mask="url(#mask-7)">
                        <g transform="translate(-29.000000, -31.000000)">
                            <g id="Oval-136-+-Rectangle-1028" transform="translate(46.718508, 47.172499)">
                                <mask id="mask-9" sketch:name="Mask" fill="white">
                                    <use xlink:href="#path-8"></use>
                                </mask>
                                <use id="Mask" sketch:type="MSShapeGroup" xlink:href="#path-8"></use>
                                <path d="M131.281492,6.83603169 C131.281492,5.72675109 132.169222,4.82750149 133.281492,4.82750149 C134.386061,4.82750149 135.281492,5.72945185 135.281492,6.83603169 L135.281492,14.8189713 C135.281492,15.9282519 134.393762,16.8275015 133.281492,16.8275015 C132.176922,16.8275015 131.281492,15.9255511 131.281492,14.8189713 L131.281492,6.83603169 Z M230.117331,52.5072853 C230.979404,51.8091924 232.236918,51.9331718 232.936893,52.7975682 C233.632021,53.6559799 233.494587,54.9194759 232.634613,55.6158691 L226.430703,60.6396958 C225.56863,61.3377887 224.311116,61.2138093 223.611141,60.3494129 C222.916013,59.4910012 223.053448,58.2275052 223.913422,57.531112 L230.117331,52.5072853 Z M256.074304,158.31294 C257.155154,158.562474 257.83166,159.629738 257.581454,160.713501 C257.33298,161.789761 256.252718,162.459347 255.1745,162.21042 L247.396163,160.41465 C246.315313,160.165116 245.638807,159.097852 245.889013,158.014089 C246.137487,156.937829 247.217748,156.268243 248.295967,156.517169 L256.074304,158.31294 Z M189.5457,244.505986 C190.031976,245.503001 189.628295,246.700396 188.628593,247.187983 C187.635813,247.672195 186.435616,247.254058 185.950523,246.259471 L182.451033,239.084452 C181.964756,238.087437 182.368437,236.890042 183.368139,236.402455 C184.36092,235.918243 185.561117,236.33638 186.046209,237.330967 L189.5457,244.505986 Z M80.6124606,246.259471 C80.126184,247.256485 78.9340928,247.67557 77.9343908,247.187983 C76.9416103,246.703772 76.5321917,245.500573 77.0172844,244.505986 L80.5167748,237.330967 C81.0030514,236.333953 82.1951426,235.914867 83.1948446,236.402455 C84.1876251,236.886666 84.5970436,238.089865 84.111951,239.084452 L80.6124606,246.259471 Z M11.3884841,162.21042 C10.3076343,162.459954 9.23173666,161.797264 8.98153027,160.713501 C8.7330562,159.637242 9.41046159,158.561866 10.4886799,158.31294 L18.2670172,156.517169 C19.347867,156.267636 20.4237647,156.930326 20.673971,158.014089 C20.9224451,159.090348 20.2450397,160.165723 19.1668215,160.41465 L11.3884841,162.21042 Z M33.9283715,55.6158691 C33.0662985,54.9177762 32.9261167,53.6619646 33.6260911,52.7975682 C34.3212192,51.9391565 35.585679,51.810892 36.445653,52.5072853 L42.6495623,57.531112 C43.5116352,58.2292049 43.6518171,59.4850165 42.9518426,60.3494129 C42.2567145,61.2078246 40.9922548,61.3360891 40.1322807,60.6396958 L33.9283715,55.6158691 Z" id="Rectangle-912" fill="#2D363C" sketch:type="MSShapeGroup" mask="url(#mask-9)"></path>
                            </g>
                            <g id="Mask-Copy-3-+-Rectangle-917" transform="translate(179.379039, 179.485148) rotate(-26.000000) translate(-179.379039, -179.485148) translate(45.879039, 45.985148)">
                                <mask id="mask-11" sketch:name="Mask Copy 3" fill="white">
                                    <use xlink:href="#path-10"></use>
                                </mask>
                                <use id="Mask-Copy-3" sketch:type="MSShapeGroup" xlink:href="#path-10"></use>
                                <path d="M133.120961,9.01188228 C133.120961,8.46123773 133.564826,8.01485214 134.120961,8.01485214 C134.673246,8.01485214 135.120961,8.46788845 135.120961,9.01188228 L135.120961,15.017822 C135.120961,15.5684665 134.677096,16.0148521 134.120961,16.0148521 C133.568676,16.0148521 133.120961,15.5618158 133.120961,15.017822 L133.120961,9.01188228 Z M230.817912,55.0938651 C231.245843,54.7473332 231.872083,54.8113614 232.22207,55.2435596 C232.569634,55.6727655 232.499315,56.3058106 232.076552,56.648157 L227.409061,60.4278173 C226.981129,60.7743492 226.354889,60.710321 226.004902,60.2781228 C225.657338,59.8489169 225.727657,59.2158718 226.15042,58.8735254 L230.817912,55.0938651 Z M255.725657,160.252297 C256.262189,160.376165 256.597286,160.909068 256.472183,161.45095 C256.347946,161.98908 255.805806,162.323409 255.275755,162.201037 L249.423747,160.849994 C248.887216,160.726126 248.552119,160.193223 248.677222,159.651341 C248.801459,159.113212 249.343598,158.778882 249.873649,158.901254 L255.725657,160.252297 Z M36.1653695,56.648157 C35.7374384,56.3016252 35.6698648,55.6757579 36.019852,55.2435596 C36.367416,54.8143538 37.0012477,54.7515187 37.4240103,55.0938651 L42.0915021,58.8735254 C42.5194333,59.2200573 42.5870069,59.8459246 42.2370197,60.2781228 C41.8894556,60.7073286 41.2556239,60.7701637 40.8328613,60.4278173 L36.1653695,56.648157 Z" id="Path-Copy" fill="#2D363C" sketch:type="MSShapeGroup" mask="url(#mask-11)"></path>
                            </g>
                        </g>
                    </g>
                    <g id="KM" mask="url(#mask-7)">
                        <g transform="translate(-28.000000, -30.000000)">
                            <g id="Mask-+-Rectangle-902" transform="translate(179.230211, 178.668583) rotate(26.000000) translate(-179.230211, -178.668583) translate(45.730211, 45.168583)">
                                <mask id="mask-13" sketch:name="Mask" fill="white">
                                    <use xlink:href="#path-12"></use>
                                </mask>
                                <use id="Mask" sketch:type="MSShapeGroup" xlink:href="#path-12"></use>
                                <path d="M132,52.990778 C132,52.4435864 132.443865,52 133,52 C133.552285,52 134,52.4509752 134,52.990778 L134,57.009222 C134,57.5564136 133.556135,58 133,58 C132.447715,58 132,57.5490248 132,57.009222 L132,52.990778 Z M195.696826,82.7027153 C196.122073,82.3583565 196.746138,82.4241463 197.096125,82.8563445 C197.443689,83.2855503 197.374972,83.9172983 196.955466,84.2570072 L193.832549,86.785896 C193.407301,87.1302548 192.783236,87.064465 192.433249,86.6322668 C192.085685,86.203061 192.154402,85.571313 192.573908,85.2316041 L195.696826,82.7027153 Z M54.2479202,153.0055 C53.7147531,153.128592 53.1826879,152.795888 53.0575847,152.254007 C52.9333477,151.715877 53.2720504,151.17819 53.7980181,151.05676 L57.7134697,150.152807 C58.2466368,150.029716 58.7787019,150.362419 58.9038051,150.904301 C59.0280422,151.44243 58.6893395,151.980118 58.1633718,152.101547 L54.2479202,153.0055 Z M69.0445337,84.2570072 C68.619286,83.9126484 68.5538878,83.2885427 68.903875,82.8563445 C69.2514391,82.4271386 69.8836689,82.3630064 70.3031745,82.7027153 L73.4260921,85.2316041 C73.8513398,85.5759629 73.916738,86.2000686 73.5667508,86.6322668 C73.2191867,87.0614727 72.5869568,87.1256049 72.1674513,86.785896 L69.0445337,84.2570072 Z" id="Rectangle-902" fill="#6A7881" sketch:type="MSShapeGroup" mask="url(#mask-13)"></path>
                            </g>
                            <g id="Oval-139-+-Rectangle-902" transform="translate(46.000000, 45.000000)">
                                <circle id="Oval-139" sketch:type="MSShapeGroup" cx="133" cy="133" r="133"></circle>
                                <path d="M132,49.9953976 C132,49.4456547 132.443865,49 133,49 C133.552285,49 134,49.4556644 134,49.9953976 L134,58.0046024 C134,58.5543453 133.556135,59 133,59 C132.447715,59 132,58.5443356 132,58.0046024 L132,49.9953976 Z M197.247527,80.4469817 C197.674758,80.1010173 198.30043,80.1655055 198.650417,80.5977037 C198.997981,81.0269096 198.92562,81.6616086 198.506168,82.0012736 L192.281847,87.0416296 C191.854616,87.387594 191.228945,87.3231058 190.878957,86.8909076 C190.531393,86.4617017 190.603755,85.8270028 191.023206,85.4873377 L197.247527,80.4469817 Z M214.146221,150.505623 C214.681874,150.629289 215.016259,151.162028 214.891155,151.703909 C214.766918,152.242039 214.222219,152.575777 213.696319,152.454363 L205.892389,150.652684 C205.356736,150.529019 205.022352,149.99628 205.147455,149.454399 C205.271692,148.916269 205.816392,148.582531 206.342291,148.703944 L214.146221,150.505623 Z M52.3036813,152.454363 C51.7680282,152.578029 51.2339478,152.245791 51.1088446,151.703909 C50.9846076,151.165779 51.3278793,150.627037 51.8537792,150.505623 L59.6577086,148.703944 C60.1933616,148.580279 60.7274421,148.912517 60.8525453,149.454399 C60.9767823,149.992528 60.6335106,150.531271 60.1076107,150.652684 L52.3036813,152.454363 Z M67.4938319,82.0012736 C67.0666014,81.6553092 66.9995959,81.0299019 67.3495831,80.5977037 C67.6971471,80.1684978 68.3330212,80.1073166 68.7524727,80.4469817 L74.9767939,85.4873377 C75.4040244,85.8333021 75.4710299,86.4587094 75.1210427,86.8909076 C74.7734786,87.3201135 74.1376046,87.3812947 73.7181531,87.0416296 L67.4938319,82.0012736 Z" id="Rectangle-902" fill="#6A7881" sketch:type="MSShapeGroup"></path>
                            </g>
                        </g>
                    </g>
                    <g id="Outer-numbers" mask="url(#mask-7)" font-size="15" font-family="Avenir" sketch:type="MSTextLayer" font-weight="normal">
                        <g transform="translate(49.000000, 37.000000)">
                            <text id="0">
                                <tspan x="0" y="140" fill="#2D363C">0</tspan>
                            </text>
                            <text id="10">
                                <tspan x="15" y="54" fill="#2D363C">10</tspan>
                            </text>
                            <text id="20">
                                <tspan x="94.5" y="15.49" fill="#2D363C">20</tspan>
                            </text>
                            <text id="30">
                                <tspan x="172.5" y="54.49" fill="#2D363C">30</tspan>
                            </text>
                            <text id="40">
                                <tspan x="189.5" y="140" fill="#2D363C">40</tspan>
                            </text>
                        </g>
                    </g>
                    <g id="inner-numbers" mask="url(#mask-7)" font-size="12" font-family="Avenir" sketch:type="MSTextLayer" font-weight="normal">
                        <g transform="translate(84.000000, 77.000000)">
                            <text id="8">
                                <tspan x="0" y="60" fill="#6A7881">8</tspan>
                            </text>
                            <text id="17">
                                <tspan x="12" y="35" fill="#6A7881">17</tspan>
                            </text>
                            <text id="0">
                                <tspan x="1" y="89" fill="#6A7881">0</tspan>
                            </text>
                            <text id="25">
                                <tspan x="33" y="19" fill="#6A7881">25</tspan>
                            </text>
                            <text id="34">
                                <tspan x="61" y="12" fill="#6A7881">34</tspan>
                            </text>
                            <text id="42">
                                <tspan x="88" y="19" fill="#6A7881">42</tspan>
                            </text>
                            <text id="50">
                                <tspan x="109" y="35" fill="#6A7881">50</tspan>
                            </text>
                            <text id="60">
                                <tspan x="123" y="60" fill="#6A7881">60</tspan>
                            </text>
                            <text id="68">
                                <tspan x="119" y="89" fill="#6A7881">68</tspan>
                            </text>
                        </g>
                    </g>
                    <text id="km/h" sketch:type="MSTextLayer" mask="url(#mask-7)" font-family="Avenir" font-size="14" font-weight="normal" fill="#2D363C">
                        <tspan x="135" y="124">km/h</tspan>
                    </text>
                    <text id="MPH" sketch:type="MSTextLayer" mask="url(#mask-7)" font-family="Avenir" font-size="14" font-weight="normal" fill="#2D363C">
                        <tspan x="135" y="109">MPH</tspan>
                    </text>
                </g>
            </g>
        </g>
    </g>
</svg>