<?xml version="1.0" encoding="UTF-8" standalone="no"?>
<svg width="55px" height="157px" viewBox="0 0 55 157" version="1.1" xmlns="http://www.w3.org/2000/svg" xmlns:xlink="http://www.w3.org/1999/xlink" xmlns:sketch="http://www.bohemiancoding.com/sketch/ns">
    <!-- Generator: Sketch 3.3.1 (12002) - http://www.bohemiancoding.com/sketch -->
    <title>Shape Copy 3</title>
    <desc>Created with Sketch.</desc>
    <defs>
        <linearGradient x1="49.9994755%" y1="0%" x2="49.9994755%" y2="100%" id="linearGradient-1">
            <stop stop-color="#F1183E" offset="0%"></stop>
            <stop stop-color="#AD0000" offset="100%"></stop>
        </linearGradient>
        <filter x="-50%" y="-50%" width="200%" height="200%" filterUnits="objectBoundingBox" id="filter-2">
            <feOffset dx="0" dy="4" in="SourceAlpha" result="shadowOffsetOuter1"></feOffset>
            <feGaussianBlur stdDeviation="4.5" in="shadowOffsetOuter1" result="shadowBlurOuter1"></feGaussianBlur>
            <feColorMatrix values="0 0 0 0 0.356691114   0 0 0 0 0.356691114   0 0 0 0 0.356691114  0 0 0 0.441106205 0" in="shadowBlurOuter1" type="matrix" result="shadowMatrixOuter1"></feColorMatrix>
            <feOffset dx="0" dy="2" in="SourceAlpha" result="shadowOffsetOuter2"></feOffset>
            <feGaussianBlur stdDeviation="1" in="shadowOffsetOuter2" result="shadowBlurOuter2"></feGaussianBlur>
            <feColorMatrix values="0 0 0 0 0.378109056   0 0 0 0 0.378109056   0 0 0 0 0.378109056  0 0 0 0.35 0" in="shadowBlurOuter2" type="matrix" result="shadowMatrixOuter2"></feColorMatrix>
            <feOffset dx="0" dy="2" in="SourceAlpha" result="shadowOffsetInner1"></feOffset>
            <feGaussianBlur stdDeviation="0.5" in="shadowOffsetInner1" result="shadowBlurInner1"></feGaussianBlur>
            <feComposite in="shadowBlurInner1" in2="SourceAlpha" operator="arithmetic" k2="-1" k3="1" result="shadowInnerInner1"></feComposite>
            <feColorMatrix values="0 0 0 0 1   0 0 0 0 0.348820234   0 0 0 0 0.434420291  0 0 0 0.35 0" in="shadowInnerInner1" type="matrix" result="shadowMatrixInner1"></feColorMatrix>
            <feMerge>
                <feMergeNode in="shadowMatrixOuter1"></feMergeNode>
                <feMergeNode in="shadowMatrixOuter2"></feMergeNode>
                <feMergeNode in="SourceGraphic"></feMergeNode>
                <feMergeNode in="shadowMatrixInner1"></feMergeNode>
            </feMerge>
        </filter>
        <path d="M-20.1042945,113.058389 C-17.3435583,104.622299 -8.29447853,99.867412 0.294478528,102.628314 C8.73006135,105.389216 13.4846626,114.438841 10.7239264,123.028314 C7.96319018,131.617788 -1.2392638,136.219292 -9.67484663,133.458389 C-18.1104294,130.697487 -22.8650307,121.647863 -20.1042945,113.058389 Z M67.9510753,22.7034696 C68.3643562,22.1171522 68.2440123,21.2840325 67.6760764,20.8377703 L67.5754573,20.7587077 C67.0102988,20.3146279 66.1969057,20.410655 65.7544879,20.9785846 C65.7544879,20.9785846 24.3742331,74.0989909 3.20858896,101.247863 C2.44171779,100.941096 1.67484663,100.634329 0.90797546,100.327562 C-8.90797546,97.1065097 -19.4907975,102.474931 -22.7116564,112.444856 C-25.9325153,122.261397 -20.5644172,132.844856 -10.595092,136.065908 C-0.779141104,139.286961 9.80368098,133.91854 13.0245399,123.948615 C15.1717791,117.353126 13.6380368,110.604254 9.34355828,105.849367 C29.1288344,77.7801939 67.9510753,22.7034696 67.9510753,22.7034696 Z" id="path-3"></path>
    </defs>
    <g id="Page-1" stroke="none" stroke-width="1" fill="none" fill-rule="evenodd" sketch:type="MSPage">
        <g id="Shape-Copy-3" filter="url(#filter-2)">
            <use fill="url(#linearGradient-1)" sketch:type="MSShapeGroup" transform="translate(22.275343, 78.739965) rotate(-37.000000) translate(-22.275343, -78.739965) " xlink:href="#path-3"></use>
            <use fill-opacity="0.01" fill="none" xlink:href="#path-3"></use>
        </g>
    </g>
</svg>